<svg xmlns="http://www.w3.org/2000/svg" width="174" height="42" fill="none" viewBox="0 0 174 42"><path fill="#F75D34" d="M41.27 20.701c0 9.86-7.137 18.06-16.53 19.707l-2.17-12.317a7.505 7.505 0 0 0 0-14.78L24.74 1c9.393 1.648 16.53 9.842 16.53 19.707m-21.31 7.39a7.505 7.505 0 0 1 0-14.78L17.79 1C8.401 2.648 1.26 10.842 1.26 20.701c0 9.86 7.137 18.06 16.53 19.707l2.17-12.317"/><path fill="#24272C" d="M46.276 15.465c0-5.652 4.2-9.988 9.988-9.988 3.487 0 6.558 1.732 8.234 4.449l-3.785 2.193c-.85-1.48-2.497-2.362-4.443-2.362-3.403 0-5.602 2.278-5.602 5.708 0 3.431 2.199 5.709 5.602 5.709 1.946 0 3.622-.877 4.443-2.362l3.785 2.193c-1.648 2.717-4.719 4.443-8.234 4.443-5.793 0-9.989-4.336-9.989-9.988m34.32-4.983v15.005h-4.253v-1.755c-.939 1.08-2.328 1.732-4.23 1.732-3.717 0-6.782-3.261-6.782-7.49 0-4.23 3.065-7.487 6.783-7.487 1.9 0 3.29.653 4.23 1.733v-1.733h4.251v-.005Zm-4.253 7.485c0-2.126-1.417-3.458-3.374-3.458-1.958 0-3.375 1.332-3.375 3.458 0 2.126 1.417 3.46 3.375 3.46 1.957 0 3.374-1.334 3.374-3.46Zm14.505-7.485v4.865c-1.777-.287-4.291.427-4.291 3.262v6.878h-4.291V10.477h4.29v2.834c.569-1.918 2.487-2.834 4.292-2.834Zm45.139 15.005-4.392-6.063v6.063h-4.117V5.477h4.117v11.012l4.117-6.012h4.803l-4.994 7.272 5.129 7.733h-4.663Zm19.505-9.325v9.325h-4.117v-8.717c0-1.705-1.069-2.498-2.385-2.498-1.513 0-2.553.878-2.553 2.83v8.39h-4.117V5.478h4.117v6.676c.737-1.018 2.109-1.676 3.926-1.676 2.772 0 5.129 1.974 5.129 5.68Zm1.665 1.84c0-4.224 3.346-7.486 7.519-7.486s7.52 3.262 7.52 7.485c0 4.224-3.347 7.492-7.52 7.492s-7.519-3.262-7.519-7.492Zm10.781 0c0-2.014-1.417-3.347-3.262-3.347s-3.262 1.333-3.262 3.346c0 2.014 1.417 3.347 3.262 3.347s3.262-1.333 3.262-3.347Zm-58.154-2.549c0 5.658-4.201 10-9.724 10h-7.553V5.443h7.553c5.518 0 9.724 4.342 9.724 10.005Zm-4.257 0c0-3.43-2.171-5.686-5.326-5.686h-3.43V21.14h3.43c3.138 0 5.326-2.255 5.326-5.686m13.43 6.203c.838 0 1.586-.23 2.16-.596 0 0 1.327.495 3.982 1.48-1.389 1.934-3.493 2.93-6.198 2.93-4.853 0-7.868-3.268-7.868-7.503s3.071-7.502 7.559-7.502c4.15 0 7.221 3.21 7.221 7.502a8.43 8.43 0 0 1-.168 1.71h-10.085c.518 1.473 1.823 1.98 3.392 1.98m2.609-5.175c-.45-1.642-1.737-2.244-3.014-2.244-1.614 0-2.705.799-3.099 2.244h6.113ZM79.7 32.35c.275.13.49.32.652.563.163.241.242.523.242.843 0 .478-.169.877-.5 1.204-.332.326-.743.483-1.226.483h-2.576v-5.967h2.39c.467 0 .86.158 1.187.467.326.31.483.697.483 1.159 0 .528-.214.944-.647 1.242l-.005.006Zm-1.024-2.131H77.08v1.822h1.597a.85.85 0 0 0 .63-.265.905.905 0 0 0 .259-.646.87.87 0 0 0-.259-.642.86.86 0 0 0-.624-.27h-.006Zm.186 4.482c.27 0 .495-.096.675-.281a.959.959 0 0 0 .275-.692.933.933 0 0 0-.275-.68.918.918 0 0 0-.67-.282h-1.782V34.7h1.783-.006Zm6.153-3.52h.742v4.262h-.742v-.73c-.371.562-.906.843-1.615.843-.596 0-1.107-.22-1.524-.653a2.22 2.22 0 0 1-.63-1.591c0-.624.209-1.153.63-1.592a2.03 2.03 0 0 1 1.524-.652c.704 0 1.243.281 1.615.843v-.73Zm-1.519 3.655c.433 0 .793-.146 1.086-.439.292-.292.433-.658.433-1.085 0-.428-.147-.793-.433-1.086-.287-.292-.653-.438-1.086-.438-.433 0-.782.146-1.074.438a1.476 1.476 0 0 0-.433 1.086c0 .427.146.793.433 1.085.292.293.647.439 1.074.439Zm6.912-5.36h.743v5.967h-.743v-.73c-.371.562-.905.843-1.614.843-.596 0-1.108-.22-1.524-.653a2.22 2.22 0 0 1-.63-1.591c0-.624.208-1.153.63-1.592a2.03 2.03 0 0 1 1.524-.652c.703 0 1.243.281 1.614.843v-2.44.005Zm-1.518 5.366c.433 0 .793-.147 1.085-.44.293-.292.433-.657.433-1.085 0-.427-.146-.793-.433-1.085-.287-.293-.652-.439-1.085-.439-.433 0-.782.146-1.075.439a1.476 1.476 0 0 0-.433 1.085c0 .428.147.793.433 1.086.293.292.647.439 1.075.439Zm5.511-3.769c.5 0 .9.158 1.204.473.304.315.45.742.45 1.282v2.615h-.743v-2.575c0-.35-.095-.614-.28-.805-.186-.191-.445-.287-.777-.287-.371 0-.67.119-.894.343-.23.231-.343.585-.343 1.063v2.261h-.743v-5.967h.743v2.317c.303-.483.76-.725 1.383-.725v.005Zm5.006.827H98.27v2.312c0 .208.04.36.123.45.085.09.209.135.377.135.17 0 .383 0 .63-.012v.664c-.647.084-1.125.034-1.423-.157-.298-.192-.45-.552-.45-1.08v-2.312h-.843v-.714h.843v-.973l.743-.22v1.193h1.136v.714Zm1.187 1.755c.073.382.247.675.523.888.275.214.613.315 1.018.315.562 0 .973-.208 1.226-.624l.63.36c-.417.641-1.041.962-1.879.962-.675 0-1.226-.214-1.648-.636-.422-.421-.635-.961-.635-1.608 0-.647.208-1.176.624-1.603.416-.427.95-.641 1.614-.641.624 0 1.136.22 1.53.663.394.44.59.973.59 1.592 0 .107-.011.22-.028.332h-3.571.006Zm1.473-1.884c-.399 0-.725.112-.99.337-.264.225-.422.523-.483.9h2.845c-.061-.405-.219-.709-.478-.922a1.355 1.355 0 0 0-.894-.315Zm5.186-2.295h.793v5.967h-.793v-5.967Zm4.116 1.597c.501 0 .9.158 1.204.473.304.315.45.742.45 1.282v2.615h-.742v-2.575c0-.35-.096-.614-.282-.805-.185-.191-.444-.287-.776-.287-.371 0-.669.119-.894.343-.231.231-.343.585-.343 1.063v2.261h-.742V31.18h.742v.613c.304-.483.759-.725 1.383-.725v.005Zm6.221-1.597h.742v5.967h-.742v-.73c-.371.562-.906.843-1.614.843-.597 0-1.108-.22-1.525-.653a2.22 2.22 0 0 1-.629-1.591c0-.624.208-1.153.629-1.592a2.03 2.03 0 0 1 1.525-.652c.703 0 1.243.281 1.614.843v-2.44.005Zm-1.519 5.366c.433 0 .793-.147 1.086-.44.292-.292.433-.657.433-1.085 0-.427-.146-.793-.433-1.085-.287-.293-.653-.439-1.086-.439-.433 0-.782.146-1.074.439a1.477 1.477 0 0 0-.433 1.085c0 .428.146.793.433 1.086.292.292.647.439 1.074.439Zm3.763-4.438a.505.505 0 0 1-.36-.146.46.46 0 0 1-.146-.349.5.5 0 0 1 .146-.354.466.466 0 0 1 .36-.146.46.46 0 0 1 .348.146c.096.101.147.22.147.354a.48.48 0 0 1-.147.349.478.478 0 0 1-.348.146Zm-.377 5.04v-4.264h.742v4.263h-.742Zm5.405-4.264h.742v4.263h-.742v-.73c-.371.562-.906.843-1.614.843-.597 0-1.108-.22-1.525-.653a2.22 2.22 0 0 1-.629-1.591c0-.624.208-1.153.629-1.592a2.03 2.03 0 0 1 1.525-.652c.703 0 1.243.281 1.614.843v-.73Zm-1.519 3.656c.433 0 .793-.146 1.086-.439.292-.292.433-.658.433-1.085 0-.428-.146-.793-.433-1.086-.287-.292-.653-.438-1.086-.438-.433 0-.782.146-1.074.438a1.477 1.477 0 0 0-.433 1.086c0 .427.146.793.433 1.085.292.293.647.439 1.074.439Zm9.938.607h-.973l-2.576-2.868v2.868h-.793v-5.967h.793v2.7l2.492-2.7h.973l-2.638 2.902 2.722 3.071v-.006Zm3.774-4.263h.742v4.263h-.742v-.73c-.371.562-.906.843-1.614.843-.596 0-1.108-.22-1.524-.653a2.218 2.218 0 0 1-.63-1.591c0-.624.208-1.153.63-1.592a2.029 2.029 0 0 1 1.524-.652c.703 0 1.243.281 1.614.843v-.73Zm-1.519 3.656c.433 0 .793-.146 1.086-.439.292-.292.433-.658.433-1.085 0-.428-.146-.793-.433-1.086-.287-.292-.653-.438-1.086-.438-.433 0-.781.146-1.074.438a1.477 1.477 0 0 0-.433 1.086c0 .427.146.793.433 1.085.293.293.647.439 1.074.439Zm9.01-2.486c.276.13.49.32.653.563.163.241.242.523.242.843 0 .478-.169.877-.501 1.204-.332.326-.742.483-1.226.483h-2.576v-5.967h2.39c.467 0 .861.158 1.187.467.326.31.484.697.484 1.159 0 .528-.214.944-.647 1.242l-.006.006Zm-1.023-2.131h-1.598v1.822h1.598a.85.85 0 0 0 .63-.265.907.907 0 0 0 .258-.646.87.87 0 0 0-.258-.642.863.863 0 0 0-.625-.27h-.005Zm.185 4.482c.27 0 .495-.096.675-.281a.96.96 0 0 0 .276-.692.933.933 0 0 0-.276-.68.916.916 0 0 0-.669-.282h-1.783V34.7h1.783-.006Zm4.713-3.628c.501 0 .9.158 1.204.473.304.315.45.742.45 1.282v2.615h-.743v-2.575c0-.35-.095-.614-.281-.805-.185-.191-.444-.287-.776-.287-.371 0-.669.119-.894.343-.231.231-.343.585-.343 1.063v2.261h-.743v-5.967h.743v2.317c.304-.483.759-.725 1.383-.725v.005Zm6.221.107h.742v4.263h-.742v-.73c-.372.562-.906.843-1.614.843-.597 0-1.108-.22-1.525-.653a2.222 2.222 0 0 1-.63-1.591c0-.624.209-1.153.63-1.592a2.03 2.03 0 0 1 1.525-.652c.703 0 1.242.281 1.614.843v-.73Zm-1.519 3.656c.433 0 .793-.146 1.086-.439.292-.292.433-.658.433-1.085 0-.428-.147-.793-.433-1.086-.287-.292-.653-.438-1.086-.438-.433 0-.782.146-1.074.438-.293.293-.433.658-.433 1.086 0 .427.146.793.433 1.085.292.293.647.439 1.074.439Zm4.128-2.936c.242-.529.686-.793 1.333-.793v.776a1.335 1.335 0 0 0-.939.293c-.264.213-.394.55-.394 1.012v2.261h-.742v-4.263h.742v.714Zm5.422 3.009a2.18 2.18 0 0 1-1.597.647c-.63 0-1.153-.214-1.592-.647a2.164 2.164 0 0 1-.652-1.592c0-.63.219-1.164.652-1.597.433-.433.967-.647 1.592-.647a2.19 2.19 0 0 1 1.597.647c.439.433.658.962.658 1.597 0 .636-.219 1.165-.658 1.592Zm-1.597-.079c.427 0 .787-.146 1.074-.433.292-.292.433-.652.433-1.085 0-.433-.146-.793-.433-1.086-.287-.292-.647-.433-1.074-.433-.428 0-.776.146-1.063.433a1.48 1.48 0 0 0-.433 1.086c0 .433.146.793.433 1.085.292.287.646.433 1.063.433Zm3.678-2.508c0 .163.084.292.253.388.169.096.366.18.596.247l.698.203c.236.067.433.197.596.388.163.191.242.433.242.731 0 .388-.152.697-.45.928-.298.23-.681.349-1.148.349-.416 0-.77-.09-1.068-.276a1.512 1.512 0 0 1-.63-.725l.641-.366a.901.901 0 0 0 .382.484c.186.118.411.18.675.18.242 0 .445-.045.608-.14a.479.479 0 0 0 .236-.44c0-.163-.084-.298-.248-.393a2.43 2.43 0 0 0-.596-.253l-.697-.208a1.26 1.26 0 0 1-.596-.377 1.008 1.008 0 0 1-.248-.698c0-.37.141-.675.433-.91.287-.237.647-.36 1.08-.36.349 0 .658.078.928.236.27.157.473.376.608.652l-.625.349c-.152-.366-.455-.546-.911-.546a.994.994 0 0 0-.54.146.466.466 0 0 0-.219.41Zm6.676-1.142h.742v4.263h-.742v-.73c-.371.562-.906.843-1.614.843-.597 0-1.108-.22-1.525-.653a2.22 2.22 0 0 1-.629-1.591c0-.624.208-1.153.629-1.592a2.03 2.03 0 0 1 1.525-.652c.703 0 1.243.281 1.614.843v-.73Zm-1.519 3.656c.433 0 .793-.146 1.086-.439.292-.292.433-.658.433-1.085 0-.428-.146-.793-.433-1.086-.287-.292-.653-.438-1.086-.438-.433 0-.782.146-1.074.438a1.477 1.477 0 0 0-.433 1.086c0 .427.146.793.433 1.085.292.293.647.439 1.074.439Z"/></svg>