<svg xmlns="http://www.w3.org/2000/svg" id="Layer_1" data-name="Layer 1" viewBox="0 0 70 70.78"><defs><mask id="mask" width="70" height="70.78" x="0" y="0" maskUnits="userSpaceOnUse"><g transform="translate(-5 -5)"><g id="mask-3"><circle id="path-2" cx="40" cy="40" r="35" class="cls-1"/></g></g></mask><mask id="mask-2" width="70" height="70" x="0" y="0" maskUnits="userSpaceOnUse"><g transform="translate(-5 -5)"><g id="mask-3-2" data-name="mask-3"><circle id="path-2-2" cx="40" cy="40" r="35" class="cls-1" data-name="path-2"/></g></g></mask><linearGradient id="linear-gradient" x1="-451.94" x2="-451.94" y1="534.44" y2="533.48" gradientTransform="matrix(70 0 0 -70 31671 37411)" gradientUnits="userSpaceOnUse"><stop offset="0" stop-color="#eaf7ff"/><stop offset="1" stop-color="#fff"/></linearGradient><style>.cls-1{fill:#fff}.cls-2{fill:url(#linear-gradient)}.cls-3{mask:url(#mask)}.cls-4{fill:#57a2d4}.cls-5{fill:#91c5e6}.cls-6{fill:#ceecff}.cls-7{mask:url(#mask-2)}</style></defs><g id="Mobile"><g id="Group-34"><g id="Group-20"><g id="Group-2-Copy-16"><circle id="Oval-2" cx="35" cy="35" r="35" class="cls-2"/><g class="cls-3"><g id="Group-27"><path id="Combined-Shape" d="M32.22 46.29V75h1.56V46.29h9.4v29.49H25.29V46.29Z" class="cls-4" transform="translate(-5 -5)"/><path id="Rectangle-41" d="M28.78 41.22h10.11v29.56H28.78z" class="cls-5"/><path d="M38.89 41.22H49v29.56H38.89z" class="cls-6"/><path id="Rectangle-42" d="M31.44 58.67v3.11h3.12v-3.11Zm-1.55-1.56h6.22v6.22h-6.22Z" class="cls-1" transform="translate(-5 -5)"/><path d="M35.42 50.2h7.81v8.41h-7.81z" class="cls-1"/><g id="noun_Open-Hand-Monument_1466315" data-name="noun Open-Hand-Monument 1466315"><path id="Group" d="m38.86 22.86-.07.38h.11v.12s.2.58.66 0l.14-.08-.05-.41.35-1.79a.75.75 0 0 1 1.37 0l.17.74V32.9l3.91.09a4.93 4.93 0 0 1 6.43-.66c3.87 2.34 1.23 3 1.23 3a5.74 5.74 0 0 1-3-.28c-1.29-.61-7.37 4-10.25 5.2a30 30 0 0 1-6.06 1.51v4.47h-1.35V42.7a7.61 7.61 0 0 0 0-.78h-.78a6.23 6.23 0 0 1-4.45-1.43c-2.66-2.72-2.59-4.07-2.78-6.42a43.42 43.42 0 0 0-1.39-6.44s-1-3.94 1.81-1.79 4.14 3.1 4.14 3.1 4.43 2 4.66-2.21l.49-5 .08-.7a1.18 1.18 0 0 1 1.92 0l.12 1.39-.1.75h.16v.09s.29.58.62 0h.18l-.07-.79.19-1.41s.71-1.11 1.42 0Zm-3.53 3.92v1.55h1.56v-1.55Zm3.11 0v1.55H40v-1.55Zm-3.11 3.11v1.55h1.56v-1.55Zm3.11 0v1.55H40v-1.55Z" class="cls-4" transform="translate(-5 -5)"/></g></g></g><g class="cls-7"><g id="Shape"><path d="M52.81 14a2.51 2.51 0 1 1 .29 5 1.4 1.4 0 0 1-.29 0h-7.29a2 2 0 0 1 0-3.92h.14a3.054 3.054 0 0 1 6.05-.84 2.47 2.47 0 0 1 1.1-.26ZM23.07 14.66a1.59 1.59 0 0 1-1.49 1.67h-4.79a1.24 1.24 0 0 1 0-2.47h.09a1.923 1.923 0 1 1 3.81-.53 1.56 1.56 0 0 1 .7-.16 1.58 1.58 0 0 1 1.68 1.49Z" class="cls-1"/></g></g></g></g></g></g></svg>