<svg xmlns="http://www.w3.org/2000/svg" viewBox="0 0 80 80"><style>.F{fill:#91c5e6}.G{fill:#ceecff}.H{fill:#57a2d4}</style><defs><linearGradient id="A" x1="40" x2="40" y1="0" y2="76.67" gradientUnits="userSpaceOnUse"><stop offset="0" stop-color="#eaf7ff"/><stop offset="1" stop-color="#fff"/></linearGradient></defs><circle cx="40" cy="40" r="40" fill="url(#A)"/><path fill="#fff" d="M56.62 9a2.85 2.85 0 0 1 .3 5.7h-8.6a2.24 2.24 0 0 1-2.3-2.2 2.22 2.22 0 0 1 2.2-2.2h.2a3.48 3.48 0 0 1 6.9-.9 2 2 0 0 1 1.3-.4zm-36.8 10.5a1.8 1.8 0 0 1 .2 3.6h-5.5a1.4 1.4 0 0 1 0-2.8h.1a2.22 2.22 0 1 1 4.4-.6 1.88 1.88 0 0 1 .8-.23z"/><path d="M20.4 42.64a26.44 26.44 0 0 0 3.3-.6c3.88-.92 3.77-6.27 4.5-7.8.6-1.25 3.54-2.32 4.55-2.66v11.05H20.4m38.45.01a26.12 26.12 0 0 1-3.3-.6c-3.88-.92-3.77-6.27-4.5-7.8-.6-1.25-3.53-2.32-4.54-2.66v11.05h12.35" class="G"/><path d="M45.53 28.62a5.58 5.58 0 0 0-5.74-4.82v-4.74h1.6v-.54h-1.6v-1.74H39v1.74h-1.64v.54H39v4.68c-3 .07-5.4 2.74-5.4 4.88zm-25.3 28.84h47.92v1.85H20.23zm-8.87 0h5v1.85h-5zm8.87-14.06h8.12v1.85h-8.12zm8.62-.4h4.72v2.64h-4.72zm5.92.4h10v1.85h-10zm16.25 0h7.56v1.85h-7.56zm-5.75-.4H50v2.64h-4.72zm-33.9.4h4.74v1.85h-4.74zm51.37 0h4.74v1.85h-4.74z" class="H"/><path d="M30.88 29.4h17.75v1.85H30.88z" class="F"/><path d="M12.45 46.05h3.92v11.03h-3.92zm50.28 0h3.92v11.03h-3.92z" class="G"/><path d="M17.26 39.5h2.17v1.96h-2.17z" class="F"/><path d="M17.04 38.07h2.6v1.12h-2.6z" class="H"/><path d="M17.65 36.68h1.4v1.17h-1.4z" class="F"/><path d="M17.5 35.98h1.68v.53H17.5z" class="H"/><path d="M18.08 34.54h.53v1.27h-.53z" class="F"/><path d="M17.8 33.94h1.08v.43H17.8z" class="H"/><path d="M59.53 39.5h2.17v1.96h-2.17z" class="F"/><path d="M59.3 38.07h2.6v1.12h-2.6z" class="H"/><path d="M59.92 36.68h1.4v1.17h-1.4z" class="F"/><path d="M59.78 35.98h1.68v.53h-1.68z" class="H"/><path d="M60.35 34.54h.53v1.27h-.53z" class="F"/><path d="M60.07 33.94h1.08v.43h-1.08z" class="H"/><path d="M20.4 46.05V57h9.06V46.05zm6.3 9.4h-3.52v-4a1.76 1.76 0 0 1 3.52 0zm23.04-9.4V57h9V46.05zm6.26 9.4h-3.5v-4a1.76 1.76 0 0 1 3.51 0zm-22.77-9.4v11h13v-11zm9.35 9.46h-5.73v-4.6a2.9 2.9 0 0 1 5.73 0z" class="G"/><path d="M33.57 31.92v10.62h12V31.92zm8.62 9.13h-5.3V36.6a2.66 2.66 0 0 1 5.28 0zm4.3 38.6 2.83-.7v-32.2H46.5z" class="F"/><path d="m32.67 79.5 2.1.4V68.14a4.8 4.8 0 0 1 9.58 0V80l2.1-.33V59.3H32.67z" class="G"/><path d="m29.9 78.77 2.83.74V46.75H29.9z" class="F"/><path d="m19.9 74.58 2.48 1.33v-6.26a2.46 2.46 0 0 1 4.91 0v8.17l.58.23 1.25.44.65.18V59.3H19.9z" class="G"/><path d="m16.8 72.57 3.1 2V42h-3.1z" class="F"/><path d="M12.45 69a38.56 38.56 0 0 0 3.92 3.29V59.7h-3.92zm36.88 9.9.7-.16 1.77-.6v-8.5a2.46 2.46 0 0 1 4.91 0v6.7l2.48-1.24V59.3h-9.87z" class="G"/><path d="m59.06 75.18 3.1-1.9V42h-3.1z" class="F"/><path d="M62.73 72.9a40.33 40.33 0 0 0 3.92-3.09V59.7h-3.92z" class="G"/></svg>