<svg xmlns="http://www.w3.org/2000/svg" id="Layer_1" data-name="Layer 1" viewBox="0 0 80 80.07"><defs><mask id="mask" width="80" height="80" x="0" y="0" maskUnits="userSpaceOnUse"><g id="mask-4"><circle id="path-3" cx="40" cy="40" r="40" class="cls-1"/></g></mask><mask id="mask-6" width="80" height="80.07" x="0" y="0" maskUnits="userSpaceOnUse"><g id="mask-4-7" data-name="mask-4"><circle id="path-3-6" cx="40" cy="40" r="40" class="cls-1" data-name="path-3"/></g></mask><linearGradient id="linear-gradient" x1="-452.76" x2="-452.76" y1="535.26" y2="534.3" gradientTransform="matrix(80 0 0 -80 36261 42821)" gradientUnits="userSpaceOnUse"><stop offset="0" stop-color="#eaf7ff"/><stop offset="1" stop-color="#fff"/></linearGradient><style>.cls-1{fill:#fff}.cls-2{fill:url(#linear-gradient)}.cls-3{mask:url(#mask)}.cls-4{fill:#91c5e6}.cls-5{fill:#57a2d4}.cls-6{mask:url(#mask-6)}.cls-7{fill:#ceecff;fill-rule:evenodd}.cls-8{fill:#59a9de}</style></defs><g id="Mobile"><g id="Group-4"><g id="Group"><g id="Oval-2"><circle cx="40" cy="40" r="40" class="cls-2"/></g><g class="cls-3"><path id="Shape" d="M68.36 20.5a2.87 2.87 0 1 1 .33 5.73H60a2.24 2.24 0 0 1 0-4.48h.16a3.49 3.49 0 1 1 6.91-1 2.69 2.69 0 0 1 1.27-.29Z" class="cls-1"/></g><g class="cls-3"><path d="M22.67 14.16a1.81 1.81 0 0 1 .21 3.61.74.74 0 0 1-.21 0h-5.26a1.41 1.41 0 1 1 0-2.82h.1a2.2 2.2 0 0 1 4.36-.61 1.84 1.84 0 0 1 .8-.18Z" class="cls-1"/></g><g class="cls-3"><path id="Combined-Shape" d="M8.9 45.77c7.1.23 8 2.59 8.36 3.16v4h-1.38v-1.08h-.6V53h-1.4v-1.15h-.6V53h-2.61v-1.15h-.6V53H7.86v-1.15h-.6V53h-2v-1.15h-.6V53H3.45v-1.15h-1.6a38.14 38.14 0 0 1-1.12-4.37C1.94 46.53 4 46 8.9 45.77ZM36.47 24.2h5.82l-.09.11s5.08 4.5 5.43 17.12h-16.5c.34-12.57 5.37-17.08 5.42-17.12Zm7.34.39a16 16 0 0 1 11.46 14.94v.19l2 1.71h-8.64c-.26-9.8-3.25-14.85-4.82-16.84ZM30.13 41.43h-7.94l.89-1.81c0-.5.7-12 11.94-15.13-1.54 1.91-4.63 6.95-4.89 16.94Zm40.7 4.34c4.9.23 7.29.77 8.53 1.38a43.14 43.14 0 0 1-1.15 4.71h-.93V53h-2.21v-1.15h-.6V53h-2v-1.15h-.6V53h-2.2v-1.15h-.6V53h-2.62v-1.15h-.6V53h-1.4v-1.15h-.6V53h-1.38v-4c.32-.64 1.26-3 8.36-3.23Z" class="cls-4"/></g><g class="cls-3"><path id="Path-Copy" d="M12 45H7v-2h5v2z" class="cls-5"/></g><g class="cls-3"><path id="Path" d="M17.16 54h.32L62 53.77v-.06l15.66-.09c-.34.88-.63 1.74-1 2.59H3.42c-.35-.73-.61-1.48-.91-2.24Z" class="cls-5"/></g><g class="cls-6"><path d="m18.85 44.12 1-1.12 39 .2 1.38 1.1-.2.25v8.74l-13.59.08v-4.21c-.07-.16-1.68-3.47-7.27-3.83v-1.14h-4v1.14c-5.74.29-7.39 3.68-7.46 3.84v4.31l-8.28.05v-9.08Zm-8.49 22.74v-7.55H5c-.28-.5-.55-1-.8-1.53h71.64a36.15 36.15 0 0 1-3 5v-3.47h-7.06v8.91h2.57A41.45 41.45 0 0 1 40 80.07c-11.32 0-22.51-5.5-29.64-13.21ZM36 59.57v9h7v-9Z" class="cls-7"/></g><g class="cls-3"><path d="M41.94 23.2h-5.21v-2.14h5.21v2.14z" class="cls-5"/></g><g class="cls-3"><path d="M37 45.77h.11c6.08-.4 8 2.59 8.36 3.16v3.88l-16.83.1v-4C29 48.36 31 45.38 37 45.77Z" class="cls-8"/></g><g class="cls-3"><path d="M67.73 45h5v-2h-5v2z" class="cls-5"/></g></g></g></g></svg>