<svg xmlns="http://www.w3.org/2000/svg" viewBox="0 0 80 80"><linearGradient id="A" gradientUnits="userSpaceOnUse" x1="40" y1="0" x2="40" y2="76.672"><stop offset="0" stop-color="#eaf7ff"/><stop offset="1" stop-color="#fff"/></linearGradient><circle cx="40" cy="40" r="40" fill="url(#A)"/><path d="M50.6 14.3c1.6-.1 2.9 1.1 3 2.7s-1.1 2.9-2.7 3h-8.6C41 20 40 19 40 17.8a2.22 2.22 0 0 1 2.2-2.2h.2c-.3-1.9 1.1-3.7 3-3.9 1.9-.3 3.7 1.1 3.9 3 .4-.3.8-.4 1.3-.4zM13.8 24.8c1-.1 1.9.7 1.9 1.7.1 1-.7 1.9-1.7 1.9H8.5c-.8 0-1.4-.6-1.4-1.4s.6-1.4 1.4-1.4h.1c-.2-1.2.7-2.3 1.9-2.5s2.3.7 2.5 1.9c.2-.1.5-.2.8-.2z" fill="#fff"/><path d="M57.9 75.8c-2.4 1.2-4.7 2-7.3 2.8v-9.1a10.08 10.08 0 0 0-7.2-9.7l-3.9-1.2-3.9 1.2a10.08 10.08 0 0 0-7.2 9.7v8.9c-2.5-.8-5-1.8-7.3-3V54.5h36.6v21.3h.2zm-32.5-2.5c0-.6-.5-1.1-1-1.1s-1 .5-1 1.1V75h2.1l-.1-1.7zm0-7c0-.6-.5-1.1-1-1.1s-1 .5-1 1.1V68h2.1l-.1-1.7zm0-6.9c0-.6-.5-1-1-1a1.08 1.08 0 0 0-1 1V61h2.1l-.1-1.6zm29.7 13.9c0-.6-.5-1.1-1-1.1-.6 0-1 .5-1 1.1V75h2.1l-.1-1.7zm0-7c0-.6-.5-1.1-1-1.1-.6 0-1 .5-1 1.1V68h2.1l-.1-1.7zm0-6.9c0-.6-.5-1-1-1-.6 0-1 .5-1 1V61h2.1l-.1-1.6z" fill-rule="evenodd" fill="#ceecff"/><path d="M12 54.5v14c2.4 2.4 5.2 4.5 8.2 6.2V54.5H12zm.8-13.1H12V45h8.2v-3.6h-.8zm6.4-16.8c0-1.5-1.1-2.8-2.6-3L16 19l-.5 2.6c-1.4.3-2.5 1.5-2.5 3v2.3h6.2v-2.3zm9.3 3.2c0-.9-.6-1.6-1.5-1.7l-.3-1.5-.3 1.5c-.8.2-1.4.8-1.4 1.7v1.3h3.5v-1.3zm25.5 0c0-.9-.6-1.6-1.5-1.7l-.3-1.5-.2 1.5c-.8.2-1.4.8-1.4 1.7v1.3H54v-1.3zm11.6-3.2c0-1.5-1.1-2.8-2.6-3l-.5-2.6-.5 2.6c-1.4.3-2.5 1.5-2.5 3v2.3h6.1v-2.3zm-46.4 7.6h-6.1v2.6h6.1zM59.1 46H20.5v7.5h38.6V46zm-32.7 5.9h-3.6v-2.6a1.8 1.8 0 1 1 3.6 0v2.6zm7.4 0h-3.6v-2.6a1.8 1.8 0 1 1 3.6 0v2.6zm7.3 0h-3.6v-2.6a1.8 1.8 0 1 1 3.6 0v2.6zm7.4 0h-3.6v-2.6a1.8 1.8 0 1 1 3.6 0v2.6zm7.3 0h-3.6v-2.6a1.8 1.8 0 1 1 3.6 0v2.6zM25.2 32.6h3.2v1.1h-3.2zm3.9 5.6h-4.6v1.7h4.6zm21.6-5.6h3.2v1.1h-3.2zm3.9 5.6H50v1.7h4.6zm4.3 16.3v20.7c3-1.7 5.6-3.3 8.2-5.8V54.5h-8.2zm7.4-13.1h-7.4V45h8.2v-3.6zm-6.4-9.2v2.6H66v-2.6h-5.9z" fill="#57a2d4"/><path d="M12.5 46h6.3v7.5h-6.3zm1.8-18.1H18v3.3h-3.7zm-.5 7.9h4.6v4.6h-4.6zm12.1-5.7h1.8v1.6h-1.8zm-.3 4.7H28v2.4h-2.4zm-.5 6.1h3.4V45h-3.4zm26.3-10.8h1.8v1.6h-1.8zm-.3 4.7h2.4v2.4h-2.4zm-.5 6.1H54V45h-3.4zm9.2 5.1h6.3v7.5h-6.3zm1.3-18.1h3.7v3.3h-3.7zm-.4 7.9h4.6v4.6h-4.6z" fill="#91c5e6"/></svg>